<mxfile host="Electron" agent="Mozilla/5.0 (Macintosh; Intel Mac OS X 10_15_7) AppleWebKit/537.36 (KHTML, like Gecko) draw.io/26.1.1 Chrome/132.0.6834.210 Electron/34.3.3 Safari/537.36" version="26.1.1">
  <diagram name="Page-1" id="sBqZjbgDSeKeAqcsY7Aq">
    <mxGraphModel dx="1114" dy="878" grid="1" gridSize="10" guides="1" tooltips="1" connect="1" arrows="1" fold="1" page="1" pageScale="1" pageWidth="827" pageHeight="1169" math="0" shadow="0">
      <root>
        <mxCell id="0" />
        <mxCell id="1" parent="0" />
        <mxCell id="R_BIN47knRA8koX7iSot-31" value="" style="rounded=1;whiteSpace=wrap;html=1;" vertex="1" parent="1">
          <mxGeometry x="50" y="60" width="460" height="230" as="geometry" />
        </mxCell>
        <mxCell id="R_BIN47knRA8koX7iSot-1" value="" style="rounded=0;whiteSpace=wrap;html=1;fillColor=#dae8fc;strokeColor=#6c8ebf;" vertex="1" parent="1">
          <mxGeometry x="140" y="100" width="70" height="30" as="geometry" />
        </mxCell>
        <mxCell id="R_BIN47knRA8koX7iSot-23" style="edgeStyle=orthogonalEdgeStyle;rounded=0;orthogonalLoop=1;jettySize=auto;html=1;entryX=0;entryY=0.5;entryDx=0;entryDy=0;endArrow=none;startFill=0;dashed=1;strokeColor=#FF3333;strokeWidth=2;" edge="1" parent="1" source="R_BIN47knRA8koX7iSot-2" target="R_BIN47knRA8koX7iSot-4">
          <mxGeometry relative="1" as="geometry" />
        </mxCell>
        <mxCell id="R_BIN47knRA8koX7iSot-2" value="" style="rounded=0;whiteSpace=wrap;html=1;fillColor=#d5e8d4;strokeColor=#82b366;" vertex="1" parent="1">
          <mxGeometry x="220" y="197" width="70" height="30" as="geometry" />
        </mxCell>
        <mxCell id="R_BIN47knRA8koX7iSot-3" value="" style="rounded=0;whiteSpace=wrap;html=1;fillColor=#dae8fc;strokeColor=#6c8ebf;" vertex="1" parent="1">
          <mxGeometry x="300" y="100" width="70" height="30" as="geometry" />
        </mxCell>
        <mxCell id="R_BIN47knRA8koX7iSot-4" value="" style="rounded=0;whiteSpace=wrap;html=1;fillColor=#d5e8d4;strokeColor=#82b366;" vertex="1" parent="1">
          <mxGeometry x="380" y="197" width="70" height="30" as="geometry" />
        </mxCell>
        <mxCell id="R_BIN47knRA8koX7iSot-22" style="edgeStyle=orthogonalEdgeStyle;rounded=0;orthogonalLoop=1;jettySize=auto;html=1;entryX=0;entryY=0.5;entryDx=0;entryDy=0;endArrow=none;startFill=0;dashed=1;strokeColor=#FF3333;strokeWidth=2;" edge="1" parent="1" source="R_BIN47knRA8koX7iSot-5" target="R_BIN47knRA8koX7iSot-3">
          <mxGeometry relative="1" as="geometry" />
        </mxCell>
        <mxCell id="R_BIN47knRA8koX7iSot-5" value="" style="rounded=0;whiteSpace=wrap;html=1;fillColor=#dae8fc;strokeColor=#6c8ebf;" vertex="1" parent="1">
          <mxGeometry x="210" y="100" width="10" height="30" as="geometry" />
        </mxCell>
        <mxCell id="R_BIN47knRA8koX7iSot-6" value="" style="rounded=0;whiteSpace=wrap;html=1;fillColor=#dae8fc;strokeColor=#6c8ebf;" vertex="1" parent="1">
          <mxGeometry x="370" y="100" width="10" height="30" as="geometry" />
        </mxCell>
        <mxCell id="R_BIN47knRA8koX7iSot-7" value="" style="rounded=0;whiteSpace=wrap;html=1;fillColor=#d5e8d4;strokeColor=#82b366;" vertex="1" parent="1">
          <mxGeometry x="290" y="197" width="10" height="30" as="geometry" />
        </mxCell>
        <mxCell id="R_BIN47knRA8koX7iSot-8" value="" style="rounded=0;whiteSpace=wrap;html=1;fillColor=#d5e8d4;strokeColor=#82b366;" vertex="1" parent="1">
          <mxGeometry x="450" y="197" width="10" height="30" as="geometry" />
        </mxCell>
        <mxCell id="R_BIN47knRA8koX7iSot-9" value="coroutine#1" style="text;html=1;align=center;verticalAlign=middle;whiteSpace=wrap;rounded=0;fontStyle=1" vertex="1" parent="1">
          <mxGeometry x="60" y="100" width="70" height="30" as="geometry" />
        </mxCell>
        <mxCell id="R_BIN47knRA8koX7iSot-10" value="coroutine#2" style="text;html=1;align=center;verticalAlign=middle;whiteSpace=wrap;rounded=0;fontStyle=1" vertex="1" parent="1">
          <mxGeometry x="140" y="197" width="70" height="30" as="geometry" />
        </mxCell>
        <mxCell id="R_BIN47knRA8koX7iSot-11" value="스레드 양보" style="text;html=1;align=center;verticalAlign=middle;whiteSpace=wrap;rounded=0;" vertex="1" parent="1">
          <mxGeometry x="180" y="140" width="60" height="20" as="geometry" />
        </mxCell>
        <mxCell id="R_BIN47knRA8koX7iSot-12" value="스레드 양보" style="text;html=1;align=center;verticalAlign=middle;whiteSpace=wrap;rounded=0;" vertex="1" parent="1">
          <mxGeometry x="340" y="140" width="60" height="20" as="geometry" />
        </mxCell>
        <mxCell id="R_BIN47knRA8koX7iSot-13" value="스레드 양보" style="text;html=1;align=center;verticalAlign=middle;whiteSpace=wrap;rounded=0;" vertex="1" parent="1">
          <mxGeometry x="420" y="240" width="60" height="20" as="geometry" />
        </mxCell>
        <mxCell id="R_BIN47knRA8koX7iSot-14" value="스레드 양보" style="text;html=1;align=center;verticalAlign=middle;whiteSpace=wrap;rounded=0;" vertex="1" parent="1">
          <mxGeometry x="265" y="240" width="60" height="20" as="geometry" />
        </mxCell>
        <mxCell id="R_BIN47knRA8koX7iSot-15" value="작업 실행" style="text;html=1;align=center;verticalAlign=middle;whiteSpace=wrap;rounded=0;" vertex="1" parent="1">
          <mxGeometry x="150" y="80" width="60" height="20" as="geometry" />
        </mxCell>
        <mxCell id="R_BIN47knRA8koX7iSot-16" value="작업 실행" style="text;html=1;align=center;verticalAlign=middle;whiteSpace=wrap;rounded=0;" vertex="1" parent="1">
          <mxGeometry x="310" y="80" width="60" height="20" as="geometry" />
        </mxCell>
        <mxCell id="R_BIN47knRA8koX7iSot-17" value="작업 실행" style="text;html=1;align=center;verticalAlign=middle;whiteSpace=wrap;rounded=0;" vertex="1" parent="1">
          <mxGeometry x="230" y="177" width="60" height="20" as="geometry" />
        </mxCell>
        <mxCell id="R_BIN47knRA8koX7iSot-18" value="작업 실행" style="text;html=1;align=center;verticalAlign=middle;whiteSpace=wrap;rounded=0;" vertex="1" parent="1">
          <mxGeometry x="385" y="177" width="60" height="20" as="geometry" />
        </mxCell>
        <mxCell id="R_BIN47knRA8koX7iSot-24" value="일시 중단" style="text;html=1;align=center;verticalAlign=middle;whiteSpace=wrap;rounded=0;fontColor=#FF3333;" vertex="1" parent="1">
          <mxGeometry x="231" y="90" width="60" height="30" as="geometry" />
        </mxCell>
        <mxCell id="R_BIN47knRA8koX7iSot-26" value="일시 중단" style="text;html=1;align=center;verticalAlign=middle;whiteSpace=wrap;rounded=0;fontColor=#FF3333;" vertex="1" parent="1">
          <mxGeometry x="312" y="186" width="60" height="30" as="geometry" />
        </mxCell>
        <mxCell id="R_BIN47knRA8koX7iSot-27" value="" style="endArrow=none;dashed=1;html=1;rounded=0;strokeColor=#FF3333;strokeWidth=2;" edge="1" parent="1">
          <mxGeometry width="50" height="50" relative="1" as="geometry">
            <mxPoint x="220" y="270" as="sourcePoint" />
            <mxPoint x="220" y="80" as="targetPoint" />
          </mxGeometry>
        </mxCell>
        <mxCell id="R_BIN47knRA8koX7iSot-28" value="" style="endArrow=none;dashed=1;html=1;rounded=0;strokeColor=#FF3333;strokeWidth=2;" edge="1" parent="1">
          <mxGeometry width="50" height="50" relative="1" as="geometry">
            <mxPoint x="300" y="270" as="sourcePoint" />
            <mxPoint x="300" y="80" as="targetPoint" />
          </mxGeometry>
        </mxCell>
        <mxCell id="R_BIN47knRA8koX7iSot-29" value="" style="endArrow=none;dashed=1;html=1;rounded=0;strokeColor=#FF3333;strokeWidth=2;" edge="1" parent="1">
          <mxGeometry width="50" height="50" relative="1" as="geometry">
            <mxPoint x="380" y="270" as="sourcePoint" />
            <mxPoint x="380" y="80" as="targetPoint" />
          </mxGeometry>
        </mxCell>
        <mxCell id="R_BIN47knRA8koX7iSot-32" value="하나의 스레드" style="text;html=1;align=center;verticalAlign=middle;whiteSpace=wrap;rounded=0;fontStyle=1" vertex="1" parent="1">
          <mxGeometry x="50" y="30" width="100" height="30" as="geometry" />
        </mxCell>
      </root>
    </mxGraphModel>
  </diagram>
</mxfile>
